STARTFONT 2.1
FONT -Monotype-Times New Roman-Regular-I-Normal--14-140-75-75-P-73-iso8859-7
SIZE 14 75 75
FONTBOUNDINGBOX 18 16 -2 -4

STARTPROPERTIES 24
FOUNDRY "Monotype"
FAMILY_NAME "Times New Roman"
WEIGHT_NAME "Regular"
SLANT "I"
SETWIDTH_NAME "Normal"
ADD_STYLE_NAME ""
PIXEL_SIZE 14
POINT_SIZE 140
RESOLUTION_X 75
RESOLUTION_Y 75
SPACING "P"
AVERAGE_WIDTH 73
CHARSET_REGISTRY "iso8859"
CHARSET_ENCODING "7"
FACE_NAME "Times New Roman Inclined ISO Latin Greek"
_DEC_DEVICE_FONTNAMES "PS=timesnewroman-in-latgreek"
COPYRIGHT "Copyright (c) 1994 Monotype Typography Ltd."
CAP_HEIGHT 11
X_HEIGHT 7
WEIGHT 10
QUAD_WIDTH 9
DEFAULT_CHAR 160
FONT_DESCENT 4
FONT_ASCENT 13
ENDPROPERTIES

CHARS 185

STARTCHAR space
ENCODING 32
SWIDTH 250 0
DWIDTH 4 0
BBX 0 0 0 0
BITMAP
ENDCHAR

STARTCHAR exclam
ENCODING 33
SWIDTH 271 0
DWIDTH 4 0
BBX 3 10 1 0
BITMAP
20
20
20
40
40
40
40
00
80
80
ENDCHAR

STARTCHAR quotedbl
ENCODING 34
SWIDTH 406 0
DWIDTH 6 0
BBX 4 5 1 6
BITMAP
90
90
90
90
90
ENDCHAR

STARTCHAR numbersign
ENCODING 35
SWIDTH 667 0
DWIDTH 10 0
BBX 9 11 1 -2
BITMAP
1100
1100
1100
FF80
2200
2200
2200
FF80
4400
4400
4400
ENDCHAR

STARTCHAR dollar
ENCODING 36
SWIDTH 500 0
DWIDTH 8 0
BBX 7 14 0 -2
BITMAP
04
04
1E
2A
2A
28
10
08
14
94
94
F8
20
20
ENDCHAR

STARTCHAR percent
ENCODING 37
SWIDTH 823 0
DWIDTH 12 0
BBX 11 10 1 0
BITMAP
2040
5080
9100
9200
A440
48A0
1120
2120
4140
8080
ENDCHAR

STARTCHAR ampersand
ENCODING 38
SWIDTH 719 0
DWIDTH 11 0
BBX 10 10 1 0
BITMAP
0600
0900
0900
0E00
1800
2580
4500
8200
8600
79C0
ENDCHAR

STARTCHAR quoteright
ENCODING 39
SWIDTH 271 0
DWIDTH 4 0
BBX 2 3 2 7
BITMAP
40
40
80
ENDCHAR

STARTCHAR parenleft
ENCODING 40
SWIDTH 500 0
DWIDTH 8 0
BBX 5 14 2 -3
BITMAP
08
10
20
20
40
40
80
80
80
80
80
80
80
40
ENDCHAR

STARTCHAR parenright
ENCODING 41
SWIDTH 500 0
DWIDTH 8 0
BBX 5 14 1 -3
BITMAP
10
08
08
08
08
08
08
08
10
10
20
20
40
80
ENDCHAR

STARTCHAR asterisk
ENCODING 42
SWIDTH 500 0
DWIDTH 8 0
BBX 5 6 2 5
BITMAP
20
A8
70
70
A8
20
ENDCHAR

STARTCHAR plus
ENCODING 43
SWIDTH 667 0
DWIDTH 10 0
BBX 7 7 2 0
BITMAP
10
10
10
FE
10
10
10
ENDCHAR

STARTCHAR comma
ENCODING 44
SWIDTH 271 0
DWIDTH 4 0
BBX 2 3 0 -2
BITMAP
40
40
80
ENDCHAR

STARTCHAR minus
ENCODING 45
SWIDTH 667 0
DWIDTH 10 0
BBX 8 1 1 3
BITMAP
FF
ENDCHAR

STARTCHAR period
ENCODING 46
SWIDTH 271 0
DWIDTH 4 0
BBX 1 1 1 0
BITMAP
80
ENDCHAR

STARTCHAR slash
ENCODING 47
SWIDTH 281 0
DWIDTH 4 0
BBX 6 10 -1 0
BITMAP
04
08
08
10
10
20
20
40
40
80
ENDCHAR

STARTCHAR zero
ENCODING 48
SWIDTH 500 0
DWIDTH 7 0
BBX 6 10 0 0
BITMAP
18
24
44
44
84
84
88
88
90
60
ENDCHAR

STARTCHAR one
ENCODING 49
SWIDTH 500 0
DWIDTH 7 0
BBX 4 10 1 0
BITMAP
30
10
10
20
20
20
20
40
40
E0
ENDCHAR

STARTCHAR two
ENCODING 50
SWIDTH 500 0
DWIDTH 7 0
BBX 7 10 -1 0
BITMAP
1C
22
02
02
04
08
10
20
44
F8
ENDCHAR

STARTCHAR three
ENCODING 51
SWIDTH 500 0
DWIDTH 7 0
BBX 7 10 -1 0
BITMAP
0C
12
02
04
18
04
04
04
88
70
ENDCHAR

STARTCHAR four
ENCODING 52
SWIDTH 500 0
DWIDTH 7 0
BBX 7 10 -1 0
BITMAP
02
06
0A
14
24
44
FE
08
08
08
ENDCHAR

STARTCHAR five
ENCODING 53
SWIDTH 500 0
DWIDTH 7 0
BBX 7 10 -1 0
BITMAP
1E
10
20
38
04
04
04
04
88
70
ENDCHAR

STARTCHAR six
ENCODING 54
SWIDTH 500 0
DWIDTH 7 0
BBX 7 10 0 0
BITMAP
0E
10
20
78
44
84
84
84
88
70
ENDCHAR

STARTCHAR seven
ENCODING 55
SWIDTH 500 0
DWIDTH 7 0
BBX 7 10 0 0
BITMAP
7E
84
04
08
08
10
10
20
20
40
ENDCHAR

STARTCHAR eight
ENCODING 56
SWIDTH 500 0
DWIDTH 7 0
BBX 6 10 0 0
BITMAP
18
24
44
44
38
44
84
84
88
70
ENDCHAR

STARTCHAR nine
ENCODING 57
SWIDTH 500 0
DWIDTH 7 0
BBX 7 10 0 0
BITMAP
1C
22
42
42
42
44
3C
08
10
E0
ENDCHAR

STARTCHAR colon
ENCODING 58
SWIDTH 333 0
DWIDTH 5 0
BBX 3 7 1 0
BITMAP
20
00
00
00
00
00
80
ENDCHAR

STARTCHAR semicolon
ENCODING 59
SWIDTH 333 0
DWIDTH 5 0
BBX 3 9 1 -2
BITMAP
20
00
00
00
00
00
40
40
80
ENDCHAR

STARTCHAR less
ENCODING 60
SWIDTH 668 0
DWIDTH 10 0
BBX 8 8 1 0
BITMAP
03
0C
30
C0
C0
30
0C
03
ENDCHAR

STARTCHAR equal
ENCODING 61
SWIDTH 667 0
DWIDTH 10 0
BBX 8 4 1 2
BITMAP
FF
00
00
FF
ENDCHAR

STARTCHAR greater
ENCODING 62
SWIDTH 667 0
DWIDTH 10 0
BBX 8 8 1 0
BITMAP
C0
30
0C
03
03
0C
30
C0
ENDCHAR

STARTCHAR question
ENCODING 63
SWIDTH 385 0
DWIDTH 6 0
BBX 5 10 1 0
BITMAP
30
48
08
10
20
40
40
00
00
80
ENDCHAR

STARTCHAR at
ENCODING 64
SWIDTH 917 0
DWIDTH 14 0
BBX 12 14 1 -4
BITMAP
0FC0
1020
2010
4390
4490
8890
9090
9120
9340
4D90
4010
2020
18C0
0700
ENDCHAR

STARTCHAR A
ENCODING 65
SWIDTH 719 0
DWIDTH 11 0
BBX 10 10 -1 0
BITMAP
0080
0180
0280
0280
0480
0880
1F80
2080
4080
E1C0
ENDCHAR

STARTCHAR B
ENCODING 66
SWIDTH 667 0
DWIDTH 10 0
BBX 9 10 0 0
BITMAP
3F00
1080
1080
2100
3E00
2100
2100
4100
4200
FC00
ENDCHAR

STARTCHAR C
ENCODING 67
SWIDTH 719 0
DWIDTH 11 0
BBX 9 10 1 0
BITMAP
0E80
1180
2080
4000
4000
8000
8000
8100
4200
3C00
ENDCHAR

STARTCHAR D
ENCODING 68
SWIDTH 771 0
DWIDTH 12 0
BBX 11 10 0 0
BITMAP
3F80
1040
1020
2020
2020
2040
2040
4080
4100
FE00
ENDCHAR

STARTCHAR E
ENCODING 69
SWIDTH 667 0
DWIDTH 10 0
BBX 10 10 0 0
BITMAP
3FC0
1040
1000
2100
3E00
2200
2000
4080
4100
FF00
ENDCHAR

STARTCHAR F
ENCODING 70
SWIDTH 604 0
DWIDTH 9 0
BBX 9 10 0 0
BITMAP
3F80
1080
1000
2200
3C00
2400
2000
4000
4000
E000
ENDCHAR

STARTCHAR G
ENCODING 71
SWIDTH 719 0
DWIDTH 11 0
BBX 9 10 1 0
BITMAP
0E80
1180
2080
4000
4000
8380
8100
8100
4200
3C00
ENDCHAR

STARTCHAR H
ENCODING 72
SWIDTH 823 0
DWIDTH 12 0
BBX 12 10 0 0
BITMAP
3870
1020
1020
2040
3FC0
2040
2040
4080
4080
E1C0
ENDCHAR

STARTCHAR I
ENCODING 73
SWIDTH 385 0
DWIDTH 6 0
BBX 5 10 0 0
BITMAP
38
10
10
20
20
20
20
40
40
E0
ENDCHAR

STARTCHAR J
ENCODING 74
SWIDTH 500 0
DWIDTH 8 0
BBX 7 10 1 0
BITMAP
0E
04
04
08
08
08
08
90
90
60
ENDCHAR

STARTCHAR K
ENCODING 75
SWIDTH 719 0
DWIDTH 11 0
BBX 10 10 0 0
BITMAP
3980
1100
1200
2400
3800
2800
2400
4200
4100
E3C0
ENDCHAR

STARTCHAR L
ENCODING 76
SWIDTH 667 0
DWIDTH 10 0
BBX 9 10 0 0
BITMAP
3800
1000
1000
2000
2000
2000
2000
4080
4100
FF00
ENDCHAR

STARTCHAR M
ENCODING 77
SWIDTH 990 0
DWIDTH 15 0
BBX 15 10 0 0
BITMAP
3006
180C
1814
2828
2448
2448
2488
4510
4210
E238
ENDCHAR

STARTCHAR N
ENCODING 78
SWIDTH 771 0
DWIDTH 12 0
BBX 12 10 0 0
BITMAP
3070
1020
1820
2440
2440
2240
2240
4180
4080
E080
ENDCHAR

STARTCHAR O
ENCODING 79
SWIDTH 771 0
DWIDTH 12 0
BBX 10 10 1 0
BITMAP
0F00
1080
2040
4040
4040
8080
8080
8100
4200
3C00
ENDCHAR

STARTCHAR P
ENCODING 80
SWIDTH 667 0
DWIDTH 10 0
BBX 9 10 0 0
BITMAP
3F00
1080
1080
2100
3E00
2000
2000
4000
4000
E000
ENDCHAR

STARTCHAR Q
ENCODING 81
SWIDTH 771 0
DWIDTH 12 0
BBX 10 13 1 -3
BITMAP
0F00
1080
2040
4040
4040
8080
8080
8100
4200
3C00
2000
7880
8700
ENDCHAR

STARTCHAR R
ENCODING 82
SWIDTH 719 0
DWIDTH 11 0
BBX 10 10 0 0
BITMAP
3F00
1080
1080
2100
3E00
2400
2200
4200
4100
E1C0
ENDCHAR

STARTCHAR S
ENCODING 83
SWIDTH 604 0
DWIDTH 9 0
BBX 9 10 0 0
BITMAP
0E80
1180
2080
2000
1800
0400
0200
8200
C400
B800
ENDCHAR

STARTCHAR T
ENCODING 84
SWIDTH 667 0
DWIDTH 10 0
BBX 10 10 1 0
BITMAP
7FC0
4440
8440
0800
0800
0800
0800
1000
1000
3800
ENDCHAR

STARTCHAR U
ENCODING 85
SWIDTH 771 0
DWIDTH 12 0
BBX 11 10 1 0
BITMAP
70E0
2040
2040
4080
4080
4080
4100
8100
8200
7C00
ENDCHAR

STARTCHAR V
ENCODING 86
SWIDTH 719 0
DWIDTH 11 0
BBX 10 10 2 0
BITMAP
F1C0
4080
4100
4200
4400
4800
4800
5000
6000
4000
ENDCHAR

STARTCHAR W
ENCODING 87
SWIDTH 990 0
DWIDTH 15 0
BBX 14 10 2 0
BITMAP
E71C
4208
4210
4620
4A40
4A40
5280
6300
4200
4200
ENDCHAR

STARTCHAR X
ENCODING 88
SWIDTH 719 0
DWIDTH 11 0
BBX 11 10 0 0
BITMAP
3CE0
1040
0880
0900
0600
0C00
1200
2200
4100
E380
ENDCHAR

STARTCHAR Y
ENCODING 89
SWIDTH 719 0
DWIDTH 11 0
BBX 9 10 2 0
BITMAP
E380
4100
4200
2400
2800
3000
2000
4000
4000
E000
ENDCHAR

STARTCHAR Z
ENCODING 90
SWIDTH 719 0
DWIDTH 11 0
BBX 10 10 0 0
BITMAP
1FC0
1080
2100
0200
0400
0800
1000
2080
4100
FF00
ENDCHAR

STARTCHAR bracketleft
ENCODING 91
SWIDTH 500 0
DWIDTH 8 0
BBX 6 13 1 -3
BITMAP
1C
10
10
20
20
20
20
40
40
40
80
80
E0
ENDCHAR

STARTCHAR backslash
ENCODING 92
SWIDTH 281 0
DWIDTH 4 0
BBX 6 10 0 0
BITMAP
80
80
40
40
20
20
10
10
08
04
ENDCHAR

STARTCHAR bracketright
ENCODING 93
SWIDTH 500 0
DWIDTH 8 0
BBX 6 13 0 -3
BITMAP
1C
04
04
08
08
08
08
10
10
10
20
20
E0
ENDCHAR

STARTCHAR asciicircum
ENCODING 94
SWIDTH 427 0
DWIDTH 6 0
BBX 7 5 0 5
BITMAP
10
28
44
44
82
ENDCHAR

STARTCHAR underscore
ENCODING 95
SWIDTH 500 0
DWIDTH 8 0
BBX 8 1 0 -2
BITMAP
FF
ENDCHAR

STARTCHAR quoteleft
ENCODING 96
SWIDTH 271 0
DWIDTH 4 0
BBX 2 3 2 7
BITMAP
40
80
80
ENDCHAR

STARTCHAR a
ENCODING 97
SWIDTH 500 0
DWIDTH 7 0
BBX 7 7 0 0
BITMAP
1A
24
44
84
88
98
6C
ENDCHAR

STARTCHAR b
ENCODING 98
SWIDTH 500 0
DWIDTH 7 0
BBX 6 10 0 0
BITMAP
60
20
20
58
64
44
44
84
88
F0
ENDCHAR

STARTCHAR c
ENCODING 99
SWIDTH 438 0
DWIDTH 7 0
BBX 6 7 0 0
BITMAP
18
24
40
80
80
88
70
ENDCHAR

STARTCHAR d
ENCODING 100
SWIDTH 500 0
DWIDTH 7 0
BBX 7 10 0 0
BITMAP
06
02
02
14
2C
44
84
88
98
6C
ENDCHAR

STARTCHAR e
ENCODING 101
SWIDTH 438 0
DWIDTH 7 0
BBX 6 7 0 0
BITMAP
18
24
48
F0
80
88
70
ENDCHAR

STARTCHAR f
ENCODING 102
SWIDTH 333 0
DWIDTH 5 0
BBX 9 14 -2 -3
BITMAP
0180
0280
0400
0400
1E00
0800
0800
0800
1000
1000
1000
2000
A000
C000
ENDCHAR

STARTCHAR g
ENCODING 103
SWIDTH 500 0
DWIDTH 7 0
BBX 7 10 -1 -3
BITMAP
18
26
44
48
30
20
3C
44
88
70
ENDCHAR

STARTCHAR h
ENCODING 104
SWIDTH 500 0
DWIDTH 7 0
BBX 6 10 0 0
BITMAP
60
20
20
4C
54
64
44
88
88
8C
ENDCHAR

STARTCHAR i
ENCODING 105
SWIDTH 271 0
DWIDTH 4 0
BBX 3 10 0 0
BITMAP
20
20
00
C0
40
40
40
80
80
C0
ENDCHAR

STARTCHAR j
ENCODING 106
SWIDTH 271 0
DWIDTH 4 0
BBX 6 14 -2 -4
BITMAP
04
04
00
18
08
08
10
10
10
10
20
20
A0
C0
ENDCHAR

STARTCHAR k
ENCODING 107
SWIDTH 531 0
DWIDTH 8 0
BBX 6 10 0 0
BITMAP
60
20
20
4C
48
50
60
90
94
88
ENDCHAR

STARTCHAR l
ENCODING 108
SWIDTH 271 0
DWIDTH 4 0
BBX 3 10 0 0
BITMAP
60
20
20
40
40
40
40
80
80
C0
ENDCHAR

STARTCHAR m
ENCODING 109
SWIDTH 771 0
DWIDTH 12 0
BBX 10 7 0 0
BITMAP
CCC0
5540
6640
4440
8880
8880
88C0
ENDCHAR

STARTCHAR n
ENCODING 110
SWIDTH 500 0
DWIDTH 7 0
BBX 6 7 0 0
BITMAP
CC
54
64
44
88
88
8C
ENDCHAR

STARTCHAR o
ENCODING 111
SWIDTH 500 0
DWIDTH 7 0
BBX 6 7 0 0
BITMAP
38
44
84
84
84
88
70
ENDCHAR

STARTCHAR p
ENCODING 112
SWIDTH 500 0
DWIDTH 7 0
BBX 8 10 -2 -3
BITMAP
36
19
11
11
22
24
38
40
40
E0
ENDCHAR

STARTCHAR q
ENCODING 113
SWIDTH 500 0
DWIDTH 7 0
BBX 6 10 0 -3
BITMAP
1C
24
44
84
88
98
68
10
10
38
ENDCHAR

STARTCHAR r
ENCODING 114
SWIDTH 385 0
DWIDTH 6 0
BBX 6 7 0 0
BITMAP
CC
54
60
40
80
80
80
ENDCHAR

STARTCHAR s
ENCODING 115
SWIDTH 385 0
DWIDTH 6 0
BBX 5 7 0 0
BITMAP
38
48
40
20
10
90
E0
ENDCHAR

STARTCHAR t
ENCODING 116
SWIDTH 333 0
DWIDTH 5 0
BBX 4 9 0 0
BITMAP
20
20
F0
40
40
40
80
A0
C0
ENDCHAR

STARTCHAR u
ENCODING 117
SWIDTH 500 0
DWIDTH 7 0
BBX 6 7 0 0
BITMAP
C4
44
44
88
98
A8
CC
ENDCHAR

STARTCHAR v
ENCODING 118
SWIDTH 438 0
DWIDTH 7 0
BBX 6 7 0 0
BITMAP
CC
44
44
48
50
60
40
ENDCHAR

STARTCHAR w
ENCODING 119
SWIDTH 667 0
DWIDTH 10 0
BBX 9 7 0 0
BITMAP
C980
4880
4880
4900
5A00
6C00
4800
ENDCHAR

STARTCHAR x
ENCODING 120
SWIDTH 552 0
DWIDTH 8 0
BBX 9 7 -1 0
BITMAP
3180
1200
1400
0800
1400
2400
C600
ENDCHAR

STARTCHAR y
ENCODING 121
SWIDTH 500 0
DWIDTH 7 0
BBX 8 10 -2 -3
BITMAP
33
11
11
12
14
18
10
10
20
C0
ENDCHAR

STARTCHAR z
ENCODING 122
SWIDTH 438 0
DWIDTH 7 0
BBX 7 7 0 0
BITMAP
3E
44
08
10
20
44
F8
ENDCHAR

STARTCHAR braceleft
ENCODING 123
SWIDTH 479 0
DWIDTH 7 0
BBX 4 13 2 -3
BITMAP
30
40
40
40
40
80
80
40
40
40
40
40
30
ENDCHAR

STARTCHAR bar
ENCODING 124
SWIDTH 271 0
DWIDTH 4 0
BBX 1 13 2 -3
BITMAP
80
80
80
80
80
80
80
80
80
80
80
80
80
ENDCHAR

STARTCHAR braceright
ENCODING 125
SWIDTH 479 0
DWIDTH 7 0
BBX 4 13 1 -3
BITMAP
C0
20
20
20
20
10
10
20
20
20
20
20
C0
ENDCHAR

STARTCHAR asciitilde
ENCODING 126
SWIDTH 542 0
DWIDTH 8 0
BBX 8 2 0 3
BITMAP
71
8E
ENDCHAR

STARTCHAR space
ENCODING 160
SWIDTH 250 0
DWIDTH 4 0
BBX 0 0 0 0
BITMAP
ENDCHAR

STARTCHAR quoteleft
ENCODING 161
SWIDTH 271 0
DWIDTH 4 0
BBX 2 3 2 7
BITMAP
40
80
80
ENDCHAR

STARTCHAR quoteright
ENCODING 162
SWIDTH 271 0
DWIDTH 4 0
BBX 2 3 2 7
BITMAP
40
40
80
ENDCHAR

STARTCHAR sterling
ENCODING 163
SWIDTH 500 0
DWIDTH 8 0
BBX 8 10 0 0
BITMAP
06
09
10
10
7C
10
10
60
A2
DC
ENDCHAR

STARTCHAR brokenbar
ENCODING 166
SWIDTH 200 0
DWIDTH 3 0
BBX 1 13 1 -3
BITMAP
80
80
80
80
00
00
00
00
00
80
80
80
80
ENDCHAR

STARTCHAR section
ENCODING 167
SWIDTH 604 0
DWIDTH 9 0
BBX 8 15 1 -4
BITMAP
06
09
11
10
08
1C
22
42
44
38
10
08
88
90
60
ENDCHAR

STARTCHAR dieresis
ENCODING 168
SWIDTH 333 0
DWIDTH 5 0
BBX 4 1 2 8
BITMAP
90
ENDCHAR

STARTCHAR copyright
ENCODING 169
SWIDTH 760 0
DWIDTH 12 0
BBX 11 11 1 0
BITMAP
1F00
2080
4F40
9120
A020
A020
A020
9120
4E40
2080
1F00
ENDCHAR

STARTCHAR guillemotleft
ENCODING 171
SWIDTH 500 0
DWIDTH 8 0
BBX 7 7 0 0
BITMAP
12
24
48
90
90
48
48
ENDCHAR

STARTCHAR logicalnot
ENCODING 172
SWIDTH 667 0
DWIDTH 10 0
BBX 8 4 1 1
BITMAP
FF
01
01
01
ENDCHAR

STARTCHAR hyphen
ENCODING 173
SWIDTH 333 0
DWIDTH 5 0
BBX 3 1 1 3
BITMAP
E0
ENDCHAR

STARTCHAR endash
ENCODING 175
SWIDTH 500 0
DWIDTH 8 0
BBX 7 1 0 3
BITMAP
FE
ENDCHAR

STARTCHAR degree
ENCODING 176
SWIDTH 396 0
DWIDTH 6 0
BBX 5 5 2 6
BITMAP
70
88
88
88
70
ENDCHAR

STARTCHAR plusminus
ENCODING 177
SWIDTH 667 0
DWIDTH 10 0
BBX 7 10 2 0
BITMAP
10
10
10
FE
10
10
10
00
00
FE
ENDCHAR

STARTCHAR twosuperior
ENCODING 178
SWIDTH 292 0
DWIDTH 4 0
BBX 4 6 1 4
BITMAP
70
10
10
20
40
E0
ENDCHAR

STARTCHAR threesuperior
ENCODING 179
SWIDTH 292 0
DWIDTH 4 0
BBX 5 6 0 4
BITMAP
30
08
70
10
10
E0
ENDCHAR

STARTCHAR acute
ENCODING 180
SWIDTH 333 0
DWIDTH 5 0
BBX 2 2 2 8
BITMAP
40
80
ENDCHAR

STARTCHAR dieresisacute
ENCODING 181
SWIDTH 333 0
DWIDTH 5 0
BBX 5 2 1 8
BITMAP
10
A8
ENDCHAR

STARTCHAR afii9936
ENCODING 182
SWIDTH 719 0
DWIDTH 11 0
BBX 10 10 -1 0
BITMAP
0480
0980
0280
0280
0480
0880
1F80
2080
4080
E1C0
ENDCHAR

STARTCHAR periodcentered
ENCODING 183
SWIDTH 271 0
DWIDTH 4 0
BBX 1 1 2 5
BITMAP
80
ENDCHAR

STARTCHAR afii9937
ENCODING 184
SWIDTH 734 0
DWIDTH 11 0
BBX 11 10 0 0
BITMAP
5FE0
8820
0800
1080
1F00
1100
1000
2040
2080
7F80
ENDCHAR

STARTCHAR afii9938
ENCODING 185
SWIDTH 890 0
DWIDTH 13 0
BBX 13 10 0 0
BITMAP
5C38
8810
0810
1020
1FE0
1020
1020
2040
2040
70E0
ENDCHAR

STARTCHAR afii9939
ENCODING 186
SWIDTH 483 0
DWIDTH 7 0
BBX 6 10 0 0
BITMAP
5C
88
08
10
10
10
10
20
20
70
ENDCHAR

STARTCHAR guillemotright
ENCODING 187
SWIDTH 500 0
DWIDTH 8 0
BBX 7 7 0 0
BITMAP
24
24
12
12
24
48
90
ENDCHAR

STARTCHAR afii9940
ENCODING 188
SWIDTH 785 0
DWIDTH 12 0
BBX 10 10 1 0
BITMAP
4F00
9080
2040
4040
4040
8080
8080
8100
4200
3C00
ENDCHAR

STARTCHAR onehalf
ENCODING 189
SWIDTH 823 0
DWIDTH 12 0
BBX 11 10 1 0
BITMAP
6040
2080
2100
4200
44E0
E820
1020
2040
4080
81C0
ENDCHAR

STARTCHAR afii9941
ENCODING 190
SWIDTH 831 0
DWIDTH 12 0
BBX 12 10 0 0
BITMAP
5C70
8820
0840
0480
0500
0600
0400
0800
0800
1C00
ENDCHAR

STARTCHAR afii9942
ENCODING 191
SWIDTH 771 0
DWIDTH 12 0
BBX 11 10 0 0
BITMAP
4780
8840
1020
2020
2020
2020
2040
1980
4920
79C0
ENDCHAR

STARTCHAR afii9977
ENCODING 192
SWIDTH 271 0
DWIDTH 4 0
BBX 5 10 0 0
BITMAP
10
A8
00
C0
40
40
40
80
80
C0
ENDCHAR

STARTCHAR afii9793
ENCODING 193
SWIDTH 719 0
DWIDTH 11 0
BBX 10 10 -1 0
BITMAP
0080
0180
0280
0280
0480
0880
1F80
2080
4080
E1C0
ENDCHAR

STARTCHAR afii9794
ENCODING 194
SWIDTH 667 0
DWIDTH 10 0
BBX 9 10 0 0
BITMAP
3F00
1080
1080
2100
3E00
2100
2100
4100
4200
FC00
ENDCHAR

STARTCHAR afii9796
ENCODING 195
SWIDTH 667 0
DWIDTH 10 0
BBX 10 10 0 0
BITMAP
3FC0
1040
1040
2000
2000
2000
2000
4000
4000
E000
ENDCHAR

STARTCHAR afii9797
ENCODING 196
SWIDTH 667 0
DWIDTH 10 0
BBX 8 10 0 0
BITMAP
01
03
05
05
09
11
21
21
41
FF
ENDCHAR

STARTCHAR afii9798
ENCODING 197
SWIDTH 667 0
DWIDTH 10 0
BBX 10 10 0 0
BITMAP
3FC0
1040
1000
2100
3E00
2200
2000
4080
4100
FF00
ENDCHAR

STARTCHAR afii9801
ENCODING 198
SWIDTH 719 0
DWIDTH 11 0
BBX 10 10 0 0
BITMAP
1FC0
1080
2100
0200
0400
0800
1000
2080
4100
FF00
ENDCHAR

STARTCHAR afii9802
ENCODING 199
SWIDTH 823 0
DWIDTH 12 0
BBX 12 10 0 0
BITMAP
3870
1020
1020
2040
3FC0
2040
2040
4080
4080
E1C0
ENDCHAR

STARTCHAR afii9803
ENCODING 200
SWIDTH 771 0
DWIDTH 12 0
BBX 10 10 1 0
BITMAP
0F00
1080
2040
4040
5240
9E80
A480
8100
4200
3C00
ENDCHAR

STARTCHAR afii9804
ENCODING 201
SWIDTH 385 0
DWIDTH 6 0
BBX 5 10 0 0
BITMAP
38
10
10
20
20
20
20
40
40
E0
ENDCHAR

STARTCHAR afii9805
ENCODING 202
SWIDTH 719 0
DWIDTH 11 0
BBX 10 10 0 0
BITMAP
3980
1100
1200
2400
3800
2800
2400
4200
4100
E3C0
ENDCHAR

STARTCHAR afii9806
ENCODING 203
SWIDTH 719 0
DWIDTH 11 0
BBX 10 10 0 0
BITMAP
0080
0180
0280
0480
0480
0880
1080
2080
4080
E1C0
ENDCHAR

STARTCHAR afii9807
ENCODING 204
SWIDTH 990 0
DWIDTH 15 0
BBX 15 10 0 0
BITMAP
3006
180C
1814
2828
2448
2448
2488
4510
4210
E238
ENDCHAR

STARTCHAR afii9808
ENCODING 205
SWIDTH 771 0
DWIDTH 12 0
BBX 12 10 0 0
BITMAP
3070
1020
1820
2440
2440
2240
2240
4180
4080
E080
ENDCHAR

STARTCHAR afii9809
ENCODING 206
SWIDTH 667 0
DWIDTH 10 0
BBX 11 10 -1 0
BITMAP
1FE0
1020
0000
0880
0F00
1100
0000
4080
4080
FF80
ENDCHAR

STARTCHAR afii9810
ENCODING 207
SWIDTH 771 0
DWIDTH 12 0
BBX 10 10 1 0
BITMAP
0F00
1080
2040
4040
4040
8080
8080
8100
4200
3C00
ENDCHAR

STARTCHAR afii9811
ENCODING 208
SWIDTH 823 0
DWIDTH 12 0
BBX 12 10 0 0
BITMAP
3FF0
1020
1020
2040
2040
2040
2040
4080
4080
E1C0
ENDCHAR

STARTCHAR afii9813
ENCODING 209
SWIDTH 667 0
DWIDTH 10 0
BBX 9 10 0 0
BITMAP
3F00
1080
1080
2100
3E00
2000
2000
4000
4000
E000
ENDCHAR

STARTCHAR afii9814
ENCODING 211
SWIDTH 719 0
DWIDTH 11 0
BBX 11 10 0 0
BITMAP
3FE0
1020
0820
0400
0200
0400
0800
1080
2080
FF00
ENDCHAR

STARTCHAR afii9816
ENCODING 212
SWIDTH 667 0
DWIDTH 10 0
BBX 10 10 1 0
BITMAP
7FC0
4440
8440
0800
0800
0800
0800
1000
1000
3800
ENDCHAR

STARTCHAR afii9817
ENCODING 213
SWIDTH 719 0
DWIDTH 11 0
BBX 9 10 2 0
BITMAP
E380
4100
4200
2400
2800
3000
2000
4000
4000
E000
ENDCHAR

STARTCHAR afii9818
ENCODING 214
SWIDTH 771 0
DWIDTH 12 0
BBX 9 10 1 0
BITMAP
0E00
0400
3F00
4880
8880
8880
8900
7E00
1000
3800
ENDCHAR

STARTCHAR afii9819
ENCODING 215
SWIDTH 719 0
DWIDTH 11 0
BBX 11 10 0 0
BITMAP
3CE0
1040
0880
0900
0600
0C00
1200
2200
4100
E380
ENDCHAR

STARTCHAR afii9820
ENCODING 216
SWIDTH 823 0
DWIDTH 12 0
BBX 11 10 1 0
BITMAP
8E20
4440
4480
4880
4900
3E00
0800
1000
1000
3800
ENDCHAR

STARTCHAR afii9821
ENCODING 217
SWIDTH 771 0
DWIDTH 12 0
BBX 10 10 1 0
BITMAP
0F00
1080
2040
4040
4040
4040
4080
3300
9240
F380
ENDCHAR

STARTCHAR afii9943
ENCODING 218
SWIDTH 385 0
DWIDTH 6 0
BBX 6 12 0 0
BITMAP
24
00
38
10
10
20
20
20
20
40
40
E0
ENDCHAR

STARTCHAR afii9944
ENCODING 219
SWIDTH 719 0
DWIDTH 11 0
BBX 9 12 2 0
BITMAP
1200
0000
E380
4100
4200
2400
2800
3000
2000
4000
4000
E000
ENDCHAR

STARTCHAR afii9968
ENCODING 220
SWIDTH 500 0
DWIDTH 7 0
BBX 7 10 0 0
BITMAP
04
08
00
1A
24
44
84
88
9A
64
ENDCHAR

STARTCHAR afii9969
ENCODING 221
SWIDTH 385 0
DWIDTH 6 0
BBX 5 10 0 0
BITMAP
08
10
00
30
48
40
70
80
88
70
ENDCHAR

STARTCHAR afii9970
ENCODING 222
SWIDTH 500 0
DWIDTH 7 0
BBX 6 13 0 -3
BITMAP
04
08
00
CC
54
64
44
88
88
88
10
10
10
ENDCHAR

STARTCHAR afii9971
ENCODING 223
SWIDTH 271 0
DWIDTH 4 0
BBX 3 10 0 0
BITMAP
20
40
00
C0
40
40
40
80
80
C0
ENDCHAR

STARTCHAR afii9978
ENCODING 224
SWIDTH 438 0
DWIDTH 7 0
BBX 6 10 0 0
BITMAP
08
54
00
C8
44
44
44
84
88
70
ENDCHAR

STARTCHAR afii9825
ENCODING 225
SWIDTH 500 0
DWIDTH 7 0
BBX 7 7 0 0
BITMAP
1A
24
44
84
88
9A
64
ENDCHAR

STARTCHAR afii9826
ENCODING 226
SWIDTH 500 0
DWIDTH 8 0
BBX 8 14 -1 -3
BITMAP
06
09
11
12
2C
22
22
22
42
64
58
80
80
80
ENDCHAR

STARTCHAR afii9828
ENCODING 227
SWIDTH 438 0
DWIDTH 7 0
BBX 6 10 0 -3
BITMAP
4C
A4
24
28
28
30
20
40
40
40
ENDCHAR

STARTCHAR afii9829
ENCODING 228
SWIDTH 438 0
DWIDTH 7 0
BBX 7 11 0 0
BITMAP
0C
12
10
08
38
44
84
84
84
88
70
ENDCHAR

STARTCHAR afii9830
ENCODING 229
SWIDTH 385 0
DWIDTH 6 0
BBX 5 7 0 0
BITMAP
30
48
40
70
80
88
70
ENDCHAR

STARTCHAR afii9833
ENCODING 230
SWIDTH 438 0
DWIDTH 7 0
BBX 6 13 0 -3
BITMAP
24
28
10
20
40
40
80
80
80
70
08
08
30
ENDCHAR

STARTCHAR afii9834
ENCODING 231
SWIDTH 500 0
DWIDTH 7 0
BBX 6 10 0 -3
BITMAP
CC
54
64
44
88
88
88
10
10
10
ENDCHAR

STARTCHAR afii9835
ENCODING 232
SWIDTH 500 0
DWIDTH 8 0
BBX 7 11 0 0
BITMAP
0C
12
22
42
42
7C
84
84
88
90
60
ENDCHAR

STARTCHAR afii9836
ENCODING 233
SWIDTH 271 0
DWIDTH 4 0
BBX 2 7 0 0
BITMAP
C0
40
40
40
80
80
C0
ENDCHAR

STARTCHAR afii9837
ENCODING 234
SWIDTH 552 0
DWIDTH 8 0
BBX 7 7 0 0
BITMAP
C4
4A
50
60
90
94
88
ENDCHAR

STARTCHAR afii9838
ENCODING 235
SWIDTH 500 0
DWIDTH 8 0
BBX 8 10 0 0
BITMAP
10
28
08
08
08
08
14
24
45
82
ENDCHAR

STARTCHAR afii9839
ENCODING 236
SWIDTH 552 0
DWIDTH 8 0
BBX 8 10 -1 -3
BITMAP
22
22
22
44
4C
55
66
80
80
80
ENDCHAR

STARTCHAR afii9840
ENCODING 237
SWIDTH 438 0
DWIDTH 7 0
BBX 6 7 0 0
BITMAP
CC
44
44
48
50
60
40
ENDCHAR

STARTCHAR afii9841
ENCODING 238
SWIDTH 500 0
DWIDTH 8 0
BBX 7 14 0 -3
BITMAP
10
26
18
20
2C
30
40
80
80
80
78
04
04
38
ENDCHAR

STARTCHAR afii9842
ENCODING 239
SWIDTH 500 0
DWIDTH 7 0
BBX 6 7 0 0
BITMAP
38
44
84
84
84
88
70
ENDCHAR

STARTCHAR afii9843
ENCODING 240
SWIDTH 552 0
DWIDTH 8 0
BBX 8 7 0 0
BITMAP
7F
A4
24
24
48
4A
8C
ENDCHAR

STARTCHAR afii9845
ENCODING 241
SWIDTH 500 0
DWIDTH 8 0
BBX 8 10 -1 -3
BITMAP
0E
11
21
21
42
44
78
80
80
80
ENDCHAR

STARTCHAR afii9847
ENCODING 242
SWIDTH 438 0
DWIDTH 7 0
BBX 6 10 0 -3
BITMAP
38
44
40
80
80
80
70
08
08
30
ENDCHAR

STARTCHAR afii9846
ENCODING 243
SWIDTH 552 0
DWIDTH 8 0
BBX 8 7 0 0
BITMAP
3F
48
84
84
84
88
70
ENDCHAR

STARTCHAR afii9848
ENCODING 244
SWIDTH 438 0
DWIDTH 7 0
BBX 6 7 0 0
BITMAP
7C
90
10
10
20
28
10
ENDCHAR

STARTCHAR afii9849
ENCODING 245
SWIDTH 438 0
DWIDTH 7 0
BBX 6 7 0 0
BITMAP
C8
44
44
44
84
88
70
ENDCHAR

STARTCHAR afii9850
ENCODING 246
SWIDTH 552 0
DWIDTH 8 0
BBX 7 10 0 -3
BITMAP
24
4A
92
92
A4
A4
78
20
40
40
ENDCHAR

STARTCHAR afii9851
ENCODING 247
SWIDTH 500 0
DWIDTH 8 0
BBX 10 10 -1 -3
BITMAP
1040
2880
0900
0A00
0400
0800
1400
2400
4500
8200
ENDCHAR

STARTCHAR afii9852
ENCODING 248
SWIDTH 719 0
DWIDTH 11 0
BBX 10 10 1 -3
BITMAP
C8C0
4900
4900
8900
9200
9200
7C00
2000
2000
2000
ENDCHAR

STARTCHAR afii9853
ENCODING 249
SWIDTH 719 0
DWIDTH 11 0
BBX 10 7 0 0
BITMAP
3180
4440
8440
8440
8840
9480
6300
ENDCHAR

STARTCHAR afii9975
ENCODING 250
SWIDTH 271 0
DWIDTH 4 0
BBX 4 9 0 0
BITMAP
90
00
C0
40
40
40
80
80
C0
ENDCHAR

STARTCHAR afii9976
ENCODING 251
SWIDTH 438 0
DWIDTH 7 0
BBX 6 10 0 0
BITMAP
24
00
00
C8
44
44
44
84
88
70
ENDCHAR

STARTCHAR afii9972
ENCODING 252
SWIDTH 500 0
DWIDTH 7 0
BBX 6 10 0 0
BITMAP
08
10
00
38
44
84
84
84
88
70
ENDCHAR

STARTCHAR afii9973
ENCODING 253
SWIDTH 438 0
DWIDTH 7 0
BBX 6 10 0 0
BITMAP
08
10
00
C8
44
44
44
84
88
70
ENDCHAR

STARTCHAR afii9974
ENCODING 254
SWIDTH 719 0
DWIDTH 11 0
BBX 10 10 0 0
BITMAP
0100
0200
0000
3180
4440
8440
8440
8840
9480
6300
ENDCHAR
ENDFONT
